<svg width="23" height="23" viewBox="0 0 23 23" fill="none" xmlns="http://www.w3.org/2000/svg">
<path opacity="0.4" fill-rule="evenodd" clip-rule="evenodd" d="M2.56911 3.2359C2.56911 2.50656 2.90023 1.80708 3.48963 1.29136C4.07903 0.775632 4.87843 0.485901 5.71197 0.485901H18.2834C19.1169 0.485901 19.9163 0.775632 20.5057 1.29136C21.0951 1.80708 21.4263 2.50656 21.4263 3.2359V19.7359C21.843 19.7359 22.2427 19.8808 22.5374 20.1386C22.8321 20.3965 22.9977 20.7462 22.9977 21.1109C22.9977 21.4756 22.8321 21.8253 22.5374 22.0832C22.2427 22.341 21.843 22.4859 21.4263 22.4859H16.712C16.2952 22.4859 15.8955 22.341 15.6008 22.0832C15.3061 21.8253 15.1405 21.4756 15.1405 21.1109V18.3609C15.1405 17.9962 14.975 17.6465 14.6803 17.3886C14.3856 17.1308 13.9859 16.9859 13.5691 16.9859H10.4263C10.0095 16.9859 9.60978 17.1308 9.31508 17.3886C9.02038 17.6465 8.85482 17.9962 8.85482 18.3609V21.1109C8.85482 21.4756 8.68926 21.8253 8.39456 22.0832C8.09986 22.341 7.70016 22.4859 7.28339 22.4859H2.56911C2.15234 22.4859 1.75264 22.341 1.45794 22.0832C1.16324 21.8253 0.997681 21.4756 0.997681 21.1109C0.997681 20.7462 1.16324 20.3965 1.45794 20.1386C1.75264 19.8808 2.15234 19.7359 2.56911 19.7359V3.2359ZM7.28339 4.6109H10.4263V7.3609H7.28339V4.6109ZM10.4263 10.1109H7.28339V12.8609H10.4263V10.1109ZM13.5691 4.6109H16.712V7.3609H13.5691V4.6109ZM16.712 10.1109H13.5691V12.8609H16.712V10.1109Z" fill="#252525"/>
</svg>
