<svg width="21" height="21" viewBox="0 0 21 21" fill="none" xmlns="http://www.w3.org/2000/svg">
<path d="M2.08101 11.8192H8.58101C9.17685 11.8192 9.66435 11.3317 9.66435 10.7359V2.06923C9.66435 1.4734 9.17685 0.985901 8.58101 0.985901H2.08101C1.48518 0.985901 0.997681 1.4734 0.997681 2.06923V10.7359C0.997681 11.3317 1.48518 11.8192 2.08101 11.8192ZM2.08101 20.4859H8.58101C9.17685 20.4859 9.66435 19.9984 9.66435 19.4026V15.0692C9.66435 14.4734 9.17685 13.9859 8.58101 13.9859H2.08101C1.48518 13.9859 0.997681 14.4734 0.997681 15.0692V19.4026C0.997681 19.9984 1.48518 20.4859 2.08101 20.4859ZM12.9143 20.4859H19.4143C20.0102 20.4859 20.4977 19.9984 20.4977 19.4026V10.7359C20.4977 10.1401 20.0102 9.65257 19.4143 9.65257H12.9143C12.3185 9.65257 11.831 10.1401 11.831 10.7359V19.4026C11.831 19.9984 12.3185 20.4859 12.9143 20.4859ZM11.831 2.06923V6.40257C11.831 6.9984 12.3185 7.4859 12.9143 7.4859H19.4143C20.0102 7.4859 20.4977 6.9984 20.4977 6.40257V2.06923C20.4977 1.4734 20.0102 0.985901 19.4143 0.985901H12.9143C12.3185 0.985901 11.831 1.4734 11.831 2.06923Z" fill="#053582"/>
</svg>
