<svg width="28" height="21" viewBox="0 0 28 21" fill="none" xmlns="http://www.w3.org/2000/svg">
<path opacity="0.4" d="M22.5832 12.7947V3.04468C22.5832 1.70405 21.504 0.607178 20.1848 0.607178H3.39608C2.07696 0.607178 0.997681 1.70405 0.997681 3.04468V12.7947C0.997681 14.1353 2.07696 15.2322 3.39608 15.2322H20.1848C21.504 15.2322 22.5832 14.1353 22.5832 12.7947ZM11.7905 11.5759C9.79979 11.5759 8.19287 9.9428 8.19287 7.91968C8.19287 5.89655 9.79979 4.26343 11.7905 4.26343C13.7811 4.26343 15.3881 5.89655 15.3881 7.91968C15.3881 9.9428 13.7811 11.5759 11.7905 11.5759ZM27.38 4.26343V17.6697C27.38 19.0103 26.3008 20.1072 24.9816 20.1072H4.59527V17.6697H24.9816V4.26343H27.38Z" fill="#252525"/>
</svg>
