<svg width="16" height="16" viewBox="0 0 16 16" fill="none" xmlns="http://www.w3.org/2000/svg">
<path fill-rule="evenodd" clip-rule="evenodd" d="M1.40665 7.625C2.63615 4.60546 5.17281 2.66667 8 2.66667C10.8272 2.66667 13.3638 4.60546 14.5933 7.625C14.6911 7.8651 14.6911 8.13491 14.5933 8.37501C13.3638 11.3945 10.8272 13.3333 8 13.3333C5.17281 13.3333 2.63615 11.3945 1.40665 8.37501C1.30889 8.13491 1.30889 7.8651 1.40665 7.625ZM8 12.0998C10.2794 12.0998 12.3692 10.5245 13.4333 8C12.3692 5.4755 10.2794 3.90023 8 3.90023C5.72063 3.90023 3.63083 5.4755 2.56672 8C3.63083 10.5245 5.72063 12.0998 8 12.0998ZM8 10.4308C6.68081 10.4308 5.6114 9.34252 5.6114 8C5.6114 6.65749 6.68081 5.56917 8 5.56917C9.31918 5.56917 10.3886 6.65749 10.3886 8C10.3886 9.34252 9.31918 10.4308 8 10.4308ZM8 9.19728C8.64974 9.19728 9.17647 8.66124 9.17647 8C9.17647 7.33877 8.64974 6.80273 8 6.80273C7.35025 6.80273 6.82352 7.33877 6.82352 8C6.82352 8.66124 7.35025 9.19728 8 9.19728Z" fill="#92929D"/>
</svg>
