<svg width="105" height="36" viewBox="0 0 105 36" fill="none" xmlns="http://www.w3.org/2000/svg">
<path d="M54.5234 27V9.9375H59.7734C61.2734 9.9375 62.6133 10.2773 63.793 10.957C64.9805 11.6289 65.9062 12.5898 66.5703 13.8398C67.2344 15.082 67.5664 16.4961 67.5664 18.082V18.8672C67.5664 20.4531 67.2383 21.8633 66.582 23.0977C65.9336 24.332 65.0156 25.2891 63.8281 25.9688C62.6406 26.6484 61.3008 26.9922 59.8086 27H54.5234ZM58.0391 12.7852V24.1758H59.7383C61.1133 24.1758 62.1641 23.7266 62.8906 22.8281C63.6172 21.9297 63.9883 20.6445 64.0039 18.9727V18.0703C64.0039 16.3359 63.6445 15.0234 62.9258 14.1328C62.207 13.2344 61.1562 12.7852 59.7734 12.7852H58.0391ZM74.7266 9.9375L79.1094 22.3125L83.4688 9.9375H88.0859V27H84.5586V22.3359L84.9102 14.2852L80.3047 27H77.8906L73.2969 14.2969L73.6484 22.3359V27H70.1328V9.9375H74.7266ZM100.004 22.5234C100.004 21.8594 99.7695 21.3516 99.3008 21C98.832 20.6406 97.9883 20.2656 96.7695 19.875C95.5508 19.4766 94.5859 19.0859 93.875 18.7031C91.9375 17.6562 90.9688 16.2461 90.9688 14.4727C90.9688 13.5508 91.2266 12.7305 91.7422 12.0117C92.2656 11.2852 93.0117 10.7188 93.9805 10.3125C94.957 9.90625 96.0508 9.70312 97.2617 9.70312C98.4805 9.70312 99.5664 9.92578 100.52 10.3711C101.473 10.8086 102.211 11.4297 102.734 12.2344C103.266 13.0391 103.531 13.9531 103.531 14.9766H100.016C100.016 14.1953 99.7695 13.5898 99.2773 13.1602C98.7852 12.7227 98.0938 12.5039 97.2031 12.5039C96.3438 12.5039 95.6758 12.6875 95.1992 13.0547C94.7227 13.4141 94.4844 13.8906 94.4844 14.4844C94.4844 15.0391 94.7617 15.5039 95.3164 15.8789C95.8789 16.2539 96.7031 16.6055 97.7891 16.9336C99.7891 17.5352 101.246 18.2812 102.16 19.1719C103.074 20.0625 103.531 21.1719 103.531 22.5C103.531 23.9766 102.973 25.1367 101.855 25.9805C100.738 26.8164 99.2344 27.2344 97.3438 27.2344C96.0312 27.2344 94.8359 26.9961 93.7578 26.5195C92.6797 26.0352 91.8555 25.375 91.2852 24.5391C90.7227 23.7031 90.4414 22.7344 90.4414 21.6328H93.9688C93.9688 23.5156 95.0938 24.457 97.3438 24.457C98.1797 24.457 98.832 24.2891 99.3008 23.9531C99.7695 23.6094 100.004 23.1328 100.004 22.5234Z" fill="#030026"/>
<path fill-rule="evenodd" clip-rule="evenodd" d="M36.4977 18C36.4977 27.9411 28.4388 36 18.4977 36C8.55656 36 0.497681 27.9411 0.497681 18C0.497681 8.05888 8.55656 0 18.4977 0C28.4388 0 36.4977 8.05888 36.4977 18Z" fill="black"/>
<path d="M22.1436 12.937C23.2524 13.5512 24.1731 14.4349 24.8131 15.4993C25.4531 16.5636 25.7899 17.771 25.7894 19V27H21.4456C21.2304 27.5855 20.8313 28.0926 20.3033 28.4512C19.7754 28.8098 19.1445 29.0024 18.4977 29.0024C17.8509 29.0024 17.2201 28.8098 16.6921 28.4512C16.1641 28.0926 15.765 27.5855 15.5498 27H11.2061V19C11.2056 17.771 11.5423 16.5636 12.1823 15.4993C12.8223 14.4349 13.7431 13.5512 14.8519 12.937C14.6807 12.6419 14.5495 12.327 14.4613 12H11.2061V9.99999H14.4623C14.694 9.14175 15.216 8.38167 15.9464 7.83906C16.6768 7.29646 17.5742 7.00204 18.4977 7.00204C19.4213 7.00204 20.3187 7.29646 21.049 7.83906C21.7794 8.38167 22.3014 9.14175 22.5331 9.99999H25.7894V12H22.5331C22.4451 12.3267 22.3146 12.6416 22.1446 12.937H22.1436ZM18.4977 20C18.2215 20 17.9565 20.1053 17.7612 20.2929C17.5658 20.4804 17.4561 20.7348 17.4561 21V26C17.4561 26.2652 17.5658 26.5196 17.7612 26.7071C17.9565 26.8946 18.2215 27 18.4977 27C18.774 27 19.0389 26.8946 19.2343 26.7071C19.4296 26.5196 19.5394 26.2652 19.5394 26V21C19.5394 20.7348 19.4296 20.4804 19.2343 20.2929C19.0389 20.1053 18.774 20 18.4977 20ZM18.4977 13C19.0503 13 19.5802 12.7893 19.9709 12.4142C20.3616 12.0391 20.5811 11.5304 20.5811 11C20.5811 10.4696 20.3616 9.96085 19.9709 9.58578C19.5802 9.2107 19.0503 8.99999 18.4977 8.99999C17.9452 8.99999 17.4153 9.2107 17.0246 9.58578C16.6339 9.96085 16.4144 10.4696 16.4144 11C16.4144 11.5304 16.6339 12.0391 17.0246 12.4142C17.4153 12.7893 17.9452 13 18.4977 13Z" fill="white"/>
</svg>
