<svg width="39" height="38" viewBox="0 0 39 38" fill="none" xmlns="http://www.w3.org/2000/svg">
<path d="M36.6278 20.7587L22.785 27.6801C21.8085 28.1684 20.6488 28.4125 19.306 28.4125C17.9633 28.4125 16.8036 28.1684 15.827 27.6801L1.98425 20.7587C1.0321 20.2704 0.55603 19.6906 0.55603 19.0192C0.55603 18.3478 1.0321 17.768 1.98425 17.2797L5.57312 15.5219L8.1366 16.8036L2.89978 19.0375L19.306 26.0688L35.7123 19.0375L30.4755 16.8036L33.0389 15.5219L36.6278 17.2797C37.58 17.768 38.056 18.3478 38.056 19.0192C38.056 19.6906 37.58 20.2704 36.6278 20.7587ZM36.6278 11.3837L22.785 18.3051C21.8085 18.7934 20.6488 19.0375 19.306 19.0375C17.9633 19.0375 16.8036 18.7934 15.827 18.3051L1.98425 11.3837C1.0321 10.8954 0.55603 10.3156 0.55603 9.64423C0.55603 8.97284 1.0321 8.39301 1.98425 7.90472L15.827 0.983337C16.8036 0.51947 17.9633 0.287537 19.306 0.287537C20.6488 0.287537 21.8085 0.51947 22.785 0.983337L36.6278 7.90472C37.58 8.39301 38.056 8.97284 38.056 9.64423C38.056 10.3156 37.58 10.8954 36.6278 11.3837ZM1.98425 26.6913L5.57312 24.8969L8.1366 26.1786L2.89978 28.4125L19.306 35.4438L35.7123 28.4125L30.4755 26.1786L33.0389 24.8969L36.6278 26.6913C37.58 27.1552 38.056 27.7289 38.056 28.4125C38.056 29.0961 37.58 29.6699 36.6278 30.1337L22.785 37.0551C21.8085 37.5434 20.6488 37.7875 19.306 37.7875C17.9633 37.7875 16.8036 37.5434 15.827 37.0551L1.98425 30.1337C1.0321 29.6699 0.55603 29.0961 0.55603 28.4125C0.55603 27.7289 1.0321 27.1552 1.98425 26.6913Z" fill="#00CE2D"/>
<path d="M36.6278 20.5693L22.785 27.4907C21.8085 27.979 20.6488 28.2231 19.306 28.2231C17.9633 28.2231 16.8036 27.979 15.827 27.4907L1.98425 20.5693C1.0321 20.0811 0.55603 19.5012 0.55603 18.8298C0.55603 18.1584 1.0321 17.5908 1.98425 17.127L5.57312 15.3325L15.827 20.4595C16.8036 20.9478 17.9633 21.1919 19.306 21.1919C20.6488 21.1919 21.8085 20.9478 22.785 20.4595L33.0389 15.3325L36.6278 17.127C37.58 17.5908 38.056 18.1646 38.056 18.8481C38.056 19.5317 37.58 20.1055 36.6278 20.5693ZM36.6278 11.1943L22.785 18.1157C21.8085 18.604 20.6488 18.8481 19.306 18.8481C17.9633 18.8481 16.8036 18.604 15.827 18.1157L1.98425 11.1943C1.0321 10.7061 0.55603 10.1262 0.55603 9.45483C0.55603 8.78345 1.0321 8.20361 1.98425 7.71533L15.827 0.793945C16.8036 0.330078 17.9633 0.0981445 19.306 0.0981445C20.6488 0.0981445 21.8085 0.330078 22.785 0.793945L36.6278 7.71533C37.58 8.20361 38.056 8.78345 38.056 9.45483C38.056 10.1262 37.58 10.7061 36.6278 11.1943ZM19.306 2.44189L2.89978 9.47314L19.306 16.5044L35.7123 9.47314L19.306 2.44189ZM1.98425 26.502L5.57312 24.7075L8.1366 25.9893L2.89978 28.2231L19.306 35.2544L35.7123 28.2231L30.4755 25.9893L33.0389 24.7075L36.6278 26.502C37.58 26.9658 38.056 27.5396 38.056 28.2231C38.056 28.9067 37.58 29.4805 36.6278 29.9443L22.785 36.8657C21.8085 37.354 20.6488 37.5981 19.306 37.5981C17.9633 37.5981 16.8036 37.354 15.827 36.8657L1.98425 29.9443C1.0321 29.4805 0.55603 28.9067 0.55603 28.2231C0.55603 27.5396 1.0321 26.9658 1.98425 26.502Z" fill="#00CE2D"/>
</svg>
