<svg width="25" height="21" viewBox="0 0 25 21" fill="none" xmlns="http://www.w3.org/2000/svg">
<path opacity="0.4" fill-rule="evenodd" clip-rule="evenodd" d="M2.70006 3.85718C3.15156 3.85718 3.58457 3.68597 3.90383 3.38123C4.22309 3.07648 4.40244 2.66315 4.40244 2.23218C4.40244 1.8012 4.22309 1.38788 3.90383 1.08313C3.58457 0.778383 3.15156 0.607178 2.70006 0.607178C2.24856 0.607178 1.81555 0.778383 1.4963 1.08313C1.17704 1.38788 0.997681 1.8012 0.997681 2.23218C0.997681 2.66315 1.17704 3.07648 1.4963 3.38123C1.81555 3.68597 2.24856 3.85718 2.70006 3.85718ZM9.08399 1.41968C8.74537 1.41968 8.42061 1.54808 8.18117 1.77664C7.94172 2.0052 7.8072 2.3152 7.8072 2.63843C7.8072 2.96166 7.94172 3.27165 8.18117 3.50021C8.42061 3.72877 8.74537 3.85718 9.08399 3.85718H23.5542C23.8929 3.85718 24.2176 3.72877 24.4571 3.50021C24.6965 3.27165 24.831 2.96166 24.831 2.63843C24.831 2.3152 24.6965 2.0052 24.4571 1.77664C24.2176 1.54808 23.8929 1.41968 23.5542 1.41968H9.08399ZM9.08399 9.54468C8.74537 9.54468 8.42061 9.67308 8.18117 9.90164C7.94172 10.1302 7.8072 10.4402 7.8072 10.7634C7.8072 11.0867 7.94172 11.3967 8.18117 11.6252C8.42061 11.8538 8.74537 11.9822 9.08399 11.9822H23.5542C23.8929 11.9822 24.2176 11.8538 24.4571 11.6252C24.6965 11.3967 24.831 11.0867 24.831 10.7634C24.831 10.4402 24.6965 10.1302 24.4571 9.90164C24.2176 9.67308 23.8929 9.54468 23.5542 9.54468H9.08399ZM9.08399 17.6697C8.74537 17.6697 8.42061 17.7981 8.18117 18.0266C7.94172 18.2552 7.8072 18.5652 7.8072 18.8884C7.8072 19.2117 7.94172 19.5217 8.18117 19.7502C8.42061 19.9788 8.74537 20.1072 9.08399 20.1072H23.5542C23.8929 20.1072 24.2176 19.9788 24.4571 19.7502C24.6965 19.5217 24.831 19.2117 24.831 18.8884C24.831 18.5652 24.6965 18.2552 24.4571 18.0266C24.2176 17.7981 23.8929 17.6697 23.5542 17.6697H9.08399ZM4.40244 10.3572C4.40244 10.7882 4.22309 11.2015 3.90383 11.5062C3.58457 11.811 3.15156 11.9822 2.70006 11.9822C2.24856 11.9822 1.81555 11.811 1.4963 11.5062C1.17704 11.2015 0.997681 10.7882 0.997681 10.3572C0.997681 9.9262 1.17704 9.51288 1.4963 9.20813C1.81555 8.90338 2.24856 8.73218 2.70006 8.73218C3.15156 8.73218 3.58457 8.90338 3.90383 9.20813C4.22309 9.51288 4.40244 9.9262 4.40244 10.3572ZM2.70006 20.1072C3.15156 20.1072 3.58457 19.936 3.90383 19.6312C4.22309 19.3265 4.40244 18.9132 4.40244 18.4822C4.40244 18.0512 4.22309 17.6379 3.90383 17.3331C3.58457 17.0284 3.15156 16.8572 2.70006 16.8572C2.24856 16.8572 1.81555 17.0284 1.4963 17.3331C1.17704 17.6379 0.997681 18.0512 0.997681 18.4822C0.997681 18.9132 1.17704 19.3265 1.4963 19.6312C1.81555 19.936 2.24856 20.1072 2.70006 20.1072Z" fill="#252525"/>
</svg>
