<svg width="92" height="85" viewBox="0 0 92 85" fill="none" xmlns="http://www.w3.org/2000/svg">
<rect x="0.806152" y="0.442871" width="90.2687" height="84" rx="12" fill="#C4C4C4" fill-opacity="0.21"/>
<g clip-path="url(#clip0)">
<path d="M2.05991 67.6514H91.0748V67.6959H2.05991V67.6514Z" fill="#EBEBEB"/>
<path d="M66.5672 68.8636H72.4636V68.9082H66.5672V68.8636Z" fill="#EBEBEB"/>
<path d="M53.3521 70.4945H60.6068V70.539H53.3521V70.4945Z" fill="#EBEBEB"/>
<path d="M72.6416 69.9373H81.7354V69.9818H72.6416V69.9373Z" fill="#EBEBEB"/>
<path d="M10.9792 69.1628H27.5609V69.2074H10.9792V69.1628Z" fill="#EBEBEB"/>
<path d="M29.1454 69.1628H30.2723V69.2074H29.1454V69.1628Z" fill="#EBEBEB"/>
<path d="M34.2049 69.9142H41.7231V69.9587H34.2049V69.9142Z" fill="#EBEBEB"/>
<path d="M48.8818 59.7112H83.2576C83.8184 59.7094 84.2723 59.2555 84.2723 58.6947V10.372C84.267 9.8148 83.8148 9.36616 83.2576 9.36438H48.8818C48.321 9.36438 47.8652 9.82014 47.8652 10.3809V58.6947C47.8652 59.2555 48.321 59.7112 48.8818 59.7112ZM83.2576 9.39999C83.7934 9.40177 84.2278 9.83616 84.2278 10.372V58.6947C84.2278 59.2305 83.7934 59.6649 83.2576 59.6667H48.8818C48.3459 59.6649 47.9115 59.2305 47.9097 58.6947V10.372C47.9115 9.83616 48.3459 9.40177 48.8818 9.39999H83.2576Z" fill="#EBEBEB"/>
<path d="M10.3721 59.7112H44.7497C45.3105 59.7094 45.7645 59.2555 45.7662 58.6947V10.372C45.7609 9.8148 45.3069 9.36616 44.7497 9.36438H10.3721C9.8149 9.36616 9.36448 9.8148 9.35914 10.372V58.6947C9.35914 59.2555 9.81133 59.7094 10.3721 59.7112ZM44.7497 9.39999C45.2856 9.40177 45.7199 9.83616 45.7217 10.372V58.6947C45.7199 59.2305 45.2856 59.6649 44.7497 59.6667H10.3721C9.83626 59.6649 9.40187 59.2305 9.40009 58.6947V10.372C9.40187 9.83616 9.83626 9.40177 10.3721 9.39999H44.7497Z" fill="#EBEBEB"/>
<path d="M78.4935 30.0337H63.0494C63.0494 30.0337 63.8808 28.1003 66.6563 28.702C66.6563 28.702 67.2402 26.5034 69.3605 26.8078C69.3605 26.8078 71.1141 24.9082 73.6724 25.6452C76.2289 26.3823 76.01 28.7038 76.01 28.7038C76.01 28.7038 77.9078 28.2071 78.4935 30.0337Z" fill="#FAFAFA"/>
<path d="M37.1514 18.2552H52.5955C52.5955 18.2552 51.7641 16.3218 48.9886 16.9236C48.9886 16.9236 48.4046 14.7249 46.2843 15.0293C46.2843 15.0293 44.5307 13.1298 41.9724 13.8668C39.4159 14.6038 39.6349 16.9254 39.6349 16.9254C39.6349 16.9254 37.7353 16.4287 37.1514 18.2552Z" fill="#FAFAFA"/>
<path d="M25.761 17.7514H13.9434C13.9434 17.7514 14.3955 16.1242 16.1064 16.6565C16.1064 16.6565 15.7539 14.4739 17.0108 14.2229C18.2677 13.9719 18.67 15.6311 18.67 15.6311C18.67 15.6311 19.5744 14.5255 21.0343 14.9279C22.4924 15.3302 22.7434 16.6565 22.7434 16.6565C22.7434 16.6565 24.8566 15.4477 25.761 17.7514Z" fill="#FAFAFA"/>
<path d="M68.5185 39.1257H82.8926V67.6052H68.5185V39.1257Z" fill="#E6E6E6"/>
<path d="M71.1319 39.1257H82.8926V67.6052H71.1319V39.1257Z" fill="#F0F0F0"/>
<path d="M68.3493 39.1257H83.2023V39.5904H68.3493V39.1257Z" fill="#E0E0E0"/>
<path d="M68.3493 38.1964H83.2023V38.6611H68.3493V38.1964Z" fill="#E0E0E0"/>
<path d="M68.6609 38.661H82.8926V39.1257H68.6609V38.661Z" fill="#F0F0F0"/>
<path d="M79.567 40.8009H81.7763V43.0441H79.567V40.8009Z" fill="#E6E6E6"/>
<path d="M79.5688 40.8009H81.5823V43.0441H79.5688V40.8009Z" fill="#F5F5F5"/>
<path d="M76.2217 40.8009H78.4311V43.0441H76.2217V40.8009Z" fill="#E6E6E6"/>
<path d="M76.2235 40.8009H78.2371V43.0441H76.2235V40.8009Z" fill="#F5F5F5"/>
<path d="M72.8766 40.8009H75.0859V43.0441H72.8766V40.8009Z" fill="#E6E6E6"/>
<path d="M72.8784 40.8009H74.8919V43.0441H72.8784V40.8009Z" fill="#F5F5F5"/>
<path d="M79.567 44.1034H81.7763V46.3466H79.567V44.1034Z" fill="#E6E6E6"/>
<path d="M79.5688 44.1034H81.5823V46.3466H79.5688V44.1034Z" fill="#F5F5F5"/>
<path d="M76.2217 44.1034H78.4311V46.3466H76.2217V44.1034Z" fill="#E6E6E6"/>
<path d="M76.2235 44.1034H78.2371V46.3466H76.2235V44.1034Z" fill="#F5F5F5"/>
<path d="M72.8766 44.1034H75.0859V46.3466H72.8766V44.1034Z" fill="#E6E6E6"/>
<path d="M72.8784 44.1034H74.8919V46.3466H72.8784V44.1034Z" fill="#F5F5F5"/>
<path d="M79.567 50.1511H81.7763V52.3943H79.567V50.1511Z" fill="#E6E6E6"/>
<path d="M79.5688 50.1511H81.5823V52.3943H79.5688V50.1511Z" fill="#F5F5F5"/>
<path d="M76.2217 50.1511H78.4311V52.3943H76.2217V50.1511Z" fill="#E6E6E6"/>
<path d="M76.2235 50.1511H78.2371V52.3943H76.2235V50.1511Z" fill="#F5F5F5"/>
<path d="M72.8766 50.1511H75.0859V52.3943H72.8766V50.1511Z" fill="#E6E6E6"/>
<path d="M72.8784 50.1511H74.8919V52.3943H72.8784V50.1511Z" fill="#F5F5F5"/>
<path d="M79.567 53.4536H81.7763V55.6968H79.567V53.4536Z" fill="#E6E6E6"/>
<path d="M79.5688 53.4536H81.5823V55.6968H79.5688V53.4536Z" fill="#F5F5F5"/>
<path d="M76.2217 53.4536H78.4311V55.6968H76.2217V53.4536Z" fill="#E6E6E6"/>
<path d="M76.2235 53.4536H78.2371V55.6968H76.2235V53.4536Z" fill="#F5F5F5"/>
<path d="M72.8766 53.4536H75.0859V55.6968H72.8766V53.4536Z" fill="#E6E6E6"/>
<path d="M72.8784 53.4536H74.8919V55.6968H72.8784V53.4536Z" fill="#F5F5F5"/>
<path d="M79.567 60.1742H81.7763V62.4174H79.567V60.1742Z" fill="#E6E6E6"/>
<path d="M79.5688 60.1742H81.5823V62.4174H79.5688V60.1742Z" fill="#F5F5F5"/>
<path d="M76.2217 60.1742H78.4311V62.4174H76.2217V60.1742Z" fill="#E6E6E6"/>
<path d="M76.2235 60.1742H78.2371V62.4174H76.2235V60.1742Z" fill="#F5F5F5"/>
<path d="M72.8766 60.1742H75.0859V62.4174H72.8766V60.1742Z" fill="#E6E6E6"/>
<path d="M72.8784 60.1742H74.8919V62.4174H72.8784V60.1742Z" fill="#F5F5F5"/>
<path d="M79.567 63.4766H81.7763V65.7197H79.567V63.4766Z" fill="#E6E6E6"/>
<path d="M79.5688 63.4766H81.5823V65.7197H79.5688V63.4766Z" fill="#F5F5F5"/>
<path d="M76.2217 63.4766H78.4311V65.7197H76.2217V63.4766Z" fill="#E6E6E6"/>
<path d="M76.2235 63.4766H78.2371V65.7197H76.2235V63.4766Z" fill="#F5F5F5"/>
<path d="M72.8766 63.4766H75.0859V65.7197H72.8766V63.4766Z" fill="#E6E6E6"/>
<path d="M72.8784 63.4766H74.8919V65.7197H72.8784V63.4766Z" fill="#F5F5F5"/>
<path d="M68.5185 47.924H82.8926V48.1322H68.5185V47.924Z" fill="#E0E0E0"/>
<path d="M68.5185 58.2604H82.8926V58.4687H68.5185V58.2604Z" fill="#E0E0E0"/>
<path d="M11.994 33.249H26.1954V67.8064H11.994V33.249Z" fill="#E0E0E0"/>
<path d="M16.0388 33.249H26.1954V67.8064H16.0388V33.249Z" fill="#F0F0F0"/>
<path d="M21.369 36.0886H25.1486V37.9241H21.369V36.0886Z" fill="#E6E6E6"/>
<path d="M21.3691 36.0886H24.8976V37.9241H21.3691V36.0886Z" fill="#F5F5F5"/>
<path d="M16.9966 36.0886H20.7762V37.9241H16.9966V36.0886Z" fill="#E6E6E6"/>
<path d="M16.9967 36.0886H20.5252V37.9241H16.9967V36.0886Z" fill="#F5F5F5"/>
<path d="M21.369 39.5425H25.1486V41.378H21.369V39.5425Z" fill="#E6E6E6"/>
<path d="M21.3691 39.5425H24.8976V41.378H21.3691V39.5425Z" fill="#F5F5F5"/>
<path d="M16.9966 39.5425H20.7762V41.378H16.9966V39.5425Z" fill="#E6E6E6"/>
<path d="M16.9967 39.5425H20.5252V41.378H16.9967V39.5425Z" fill="#F5F5F5"/>
<path d="M21.369 43.9557H25.1486V45.7912H21.369V43.9557Z" fill="#E6E6E6"/>
<path d="M21.3691 43.9557H24.8976V45.7912H21.3691V43.9557Z" fill="#F5F5F5"/>
<path d="M16.9966 43.9557H20.7762V45.7912H16.9966V43.9557Z" fill="#E6E6E6"/>
<path d="M16.9967 43.9557H20.5252V45.7912H16.9967V43.9557Z" fill="#F5F5F5"/>
<path d="M21.369 46.4927H25.1486V48.3282H21.369V46.4927Z" fill="#E6E6E6"/>
<path d="M21.3691 46.4927H24.8976V48.3282H21.3691V46.4927Z" fill="#F5F5F5"/>
<path d="M16.9966 46.4927H20.7762V48.3282H16.9966V46.4927Z" fill="#E6E6E6"/>
<path d="M16.9967 46.4927H20.5252V48.3282H16.9967V46.4927Z" fill="#F5F5F5"/>
<path d="M21.369 50.6604H25.1486V52.4959H21.369V50.6604Z" fill="#E6E6E6"/>
<path d="M21.3691 50.6604H24.8976V52.4959H21.3691V50.6604Z" fill="#F5F5F5"/>
<path d="M16.9966 50.6604H20.7762V52.4959H16.9966V50.6604Z" fill="#E6E6E6"/>
<path d="M16.9967 50.6604H20.5252V52.4959H16.9967V50.6604Z" fill="#F5F5F5"/>
<path d="M21.369 53.1956H25.1486V55.031H21.369V53.1956Z" fill="#E6E6E6"/>
<path d="M21.3691 53.1956H24.8976V55.031H21.3691V53.1956Z" fill="#F5F5F5"/>
<path d="M16.9966 53.1956H20.7762V55.031H16.9966V53.1956Z" fill="#E6E6E6"/>
<path d="M16.9967 53.1956H20.5252V55.031H16.9967V53.1956Z" fill="#F5F5F5"/>
<path d="M21.369 57.7317H25.1486V59.5672H21.369V57.7317Z" fill="#E6E6E6"/>
<path d="M21.3691 57.7317H24.8976V59.5672H21.3691V57.7317Z" fill="#F5F5F5"/>
<path d="M16.9966 57.7317H20.7762V59.5672H16.9966V57.7317Z" fill="#E6E6E6"/>
<path d="M16.9967 57.7317H20.5252V59.5672H16.9967V57.7317Z" fill="#F5F5F5"/>
<path d="M21.369 61.0804H25.1486V62.9159H21.369V61.0804Z" fill="#E6E6E6"/>
<path d="M21.3691 61.0804H24.8976V62.9159H21.3691V61.0804Z" fill="#F5F5F5"/>
<path d="M16.9966 61.0804H20.7762V62.9159H16.9966V61.0804Z" fill="#E6E6E6"/>
<path d="M16.9967 61.0804H20.5252V62.9159H16.9967V61.0804Z" fill="#F5F5F5"/>
<path opacity="0.05" d="M11.994 42.5083H26.1954V42.8234H11.994V42.5083Z" fill="black"/>
<path opacity="0.05" d="M11.994 49.3358H26.1954V49.6509H11.994V49.3358Z" fill="black"/>
<path opacity="0.05" d="M11.994 56.2238H26.1954V56.5389H11.994V56.2238Z" fill="black"/>
<path d="M11.994 32.2272H26.8648V33.331H11.994V32.2272Z" fill="#E0E0E0"/>
<path opacity="0.05" d="M11.9939 32.2272H15.3925V33.331H11.9939V32.2272Z" fill="black"/>
<path d="M46.4213 25.4905H62.4761V67.2171H46.4213V25.4905Z" fill="#E6E6E6"/>
<path d="M52.3622 25.4905H68.4187V67.2171H52.3622V25.4905Z" fill="#F0F0F0"/>
<path d="M53.7633 28.323H67.0176V30.4487H53.7633V28.323Z" fill="#E6E6E6"/>
<path d="M53.7633 28.323H66.5031V30.4487H53.7633V28.323Z" fill="#F5F5F5"/>
<path d="M53.7633 31.9014H67.0176V34.027H53.7633V31.9014Z" fill="#E6E6E6"/>
<path d="M53.7633 31.9014H66.5031V34.027H53.7633V31.9014Z" fill="#F5F5F5"/>
<path d="M53.7633 35.6187H67.0176V37.7443H53.7633V35.6187Z" fill="#E6E6E6"/>
<path d="M53.7633 35.6187H66.5031V37.7443H53.7633V35.6187Z" fill="#F5F5F5"/>
<path d="M53.7633 39.3376H67.0176V41.4633H53.7633V39.3376Z" fill="#E6E6E6"/>
<path d="M53.7633 39.3376H66.5031V41.4633H53.7633V39.3376Z" fill="#F5F5F5"/>
<path d="M53.7633 43.0548H67.0176V45.1805H53.7633V43.0548Z" fill="#E6E6E6"/>
<path d="M53.7633 43.0548H66.5031V45.1805H53.7633V43.0548Z" fill="#F5F5F5"/>
<path d="M53.7633 46.7738H67.0176V48.8995H53.7633V46.7738Z" fill="#E6E6E6"/>
<path d="M53.7633 46.7738H66.5031V48.8995H53.7633V46.7738Z" fill="#F5F5F5"/>
<path d="M53.7633 50.8722H67.0176V52.9979H53.7633V50.8722Z" fill="#E6E6E6"/>
<path d="M53.7633 50.8722H66.5031V52.9979H53.7633V50.8722Z" fill="#F5F5F5"/>
<path d="M53.7633 54.9686H67.0176V57.0943H53.7633V54.9686Z" fill="#E6E6E6"/>
<path d="M53.7633 54.9686H66.5031V57.0943H53.7633V54.9686Z" fill="#F5F5F5"/>
<path d="M53.7633 59.0669H67.0176V61.1926H53.7633V59.0669Z" fill="#E6E6E6"/>
<path d="M53.7633 59.0669H66.5031V61.1926H53.7633V59.0669Z" fill="#F5F5F5"/>
<path d="M53.7633 63.165H67.0176V65.2907H53.7633V63.165Z" fill="#E6E6E6"/>
<path d="M53.7633 63.165H66.5031V65.2907H53.7633V63.165Z" fill="#F5F5F5"/>
<path d="M46.003 25.0703H68.8727V26.0886H46.003V25.0703Z" fill="#F5F5F5"/>
<path d="M46.003 23.233H68.8727V24.2514H46.003V23.233Z" fill="#F5F5F5"/>
<path d="M46.7631 24.0519H68.4187V25.0702H46.7631V24.0519Z" fill="#F0F0F0"/>
<path d="M46.4195 28.323H50.8934V30.4487H46.4195V28.323Z" fill="#E0E0E0"/>
<path d="M46.4195 31.8212H50.8934V33.9468H46.4195V31.8212Z" fill="#E0E0E0"/>
<path d="M46.4195 35.3195H50.8934V37.4451H46.4195V35.3195Z" fill="#E0E0E0"/>
<path d="M46.4195 39.3359H50.8934V41.4616H46.4195V39.3359Z" fill="#E0E0E0"/>
<path d="M46.4195 43.0548H50.8934V45.1805H46.4195V43.0548Z" fill="#E0E0E0"/>
<path d="M46.4195 46.7738H50.8934V48.8995H46.4195V46.7738Z" fill="#E0E0E0"/>
<path d="M46.4195 50.8704H50.8934V52.996H46.4195V50.8704Z" fill="#E0E0E0"/>
<path d="M46.4195 54.9686H50.8934V57.0943H46.4195V54.9686Z" fill="#E0E0E0"/>
<path d="M46.4195 59.0669H50.8934V61.1926H46.4195V59.0669Z" fill="#E0E0E0"/>
<path d="M46.4195 63.165H50.8934V65.2907H46.4195V63.165Z" fill="#E0E0E0"/>
<path d="M25.7823 40.0729H27.5484V42.8359H25.7823V40.0729Z" fill="#E0E0E0"/>
<path d="M25.7823 44.5947H27.5484V47.3577H25.7823V44.5947Z" fill="#E0E0E0"/>
<path d="M25.7823 48.9904H27.5484V51.7534H25.7823V48.9904Z" fill="#E0E0E0"/>
<path d="M25.7823 53.6368H27.5484V56.3999H25.7823V53.6368Z" fill="#E0E0E0"/>
<path d="M25.7823 58.1588H27.5484V60.9218H25.7823V58.1588Z" fill="#E0E0E0"/>
<path d="M25.7824 37.2955H44.3669V65.5596H25.7824V37.2955Z" fill="#E6E6E6"/>
<path d="M28.92 37.2955H44.3641V65.5596H28.92V37.2955Z" fill="#F0F0F0"/>
<path d="M30.4183 40.0745H42.9765V42.8375H30.4183V40.0745Z" fill="#EBEBEB"/>
<path d="M30.4183 44.5947H42.9765V47.3577H30.4183V44.5947Z" fill="#EBEBEB"/>
<path d="M30.4183 49.1167H42.9765V51.8797H30.4183V49.1167Z" fill="#EBEBEB"/>
<path d="M30.4183 53.6368H42.9765V56.3999H30.4183V53.6368Z" fill="#EBEBEB"/>
<path d="M30.4183 58.1588H42.9765V60.9218H30.4183V58.1588Z" fill="#EBEBEB"/>
<path d="M30.4184 40.0745H42.5137V42.8375H30.4184V40.0745Z" fill="#F5F5F5"/>
<path d="M30.4184 44.5947H42.5137V47.3577H30.4184V44.5947Z" fill="#F5F5F5"/>
<path d="M30.4184 49.1166H42.5137V51.8796H30.4184V49.1166Z" fill="#F5F5F5"/>
<path d="M30.4184 53.6367H42.5137V56.3997H30.4184V53.6367Z" fill="#F5F5F5"/>
<path d="M30.4184 58.1588H42.5137V60.9218H30.4184V58.1588Z" fill="#F5F5F5"/>
<path d="M23.8222 31.0668L44.3647 31.4058L44.12 46.2359L23.5774 45.8969L23.8222 31.0668Z" fill="#407BFF"/>
<path opacity="0.3" d="M31.9651 31.1995L44.3849 31.4044L44.1402 46.2346L31.7203 46.0296L31.9651 31.1995Z" fill="white"/>
<path opacity="0.3" d="M30.2139 32.4023L33.7902 32.4613L33.7737 33.4582L30.1974 33.3991L30.2139 32.4023Z" fill="white"/>
<path opacity="0.3" d="M29.9883 43.7308L33.5645 43.7898L33.5481 44.7867L29.9718 44.7276L29.9883 43.7308Z" fill="white"/>
<path d="M27.6037 40.5533C26.4444 40.5533 25.5047 39.49 25.5047 38.1784C25.5047 36.8668 26.4444 35.8035 27.6037 35.8035C28.7629 35.8035 29.7026 36.8668 29.7026 38.1784C29.7026 39.49 28.7629 40.5533 27.6037 40.5533Z" stroke="white" stroke-miterlimit="10"/>
<path d="M27.5164 36.1649V36.5637" stroke="white" stroke-miterlimit="10" stroke-linecap="round" stroke-linejoin="round"/>
<path d="M27.4257 39.818V40.2168" stroke="white" stroke-miterlimit="10" stroke-linecap="round" stroke-linejoin="round"/>
<path d="M29.3733 38.1001H28.9727" stroke="white" stroke-miterlimit="10" stroke-linecap="round" stroke-linejoin="round"/>
<path d="M26.1581 38.1019H25.7576" stroke="white" stroke-miterlimit="10" stroke-linecap="round" stroke-linejoin="round"/>
<path d="M27.5182 38.1001L27.5165 36.8717" stroke="white" stroke-width="0.5" stroke-miterlimit="10" stroke-linecap="round" stroke-linejoin="round"/>
<path d="M27.4399 38.1802L26.5712 39.049" stroke="white" stroke-width="0.5" stroke-miterlimit="10" stroke-linecap="round" stroke-linejoin="round"/>
<path d="M27.3242 38.1018C27.3242 38.2086 27.4114 38.2958 27.5182 38.2958C27.625 38.2958 27.7123 38.2086 27.7123 38.1018C27.7123 37.9949 27.625 37.9077 27.5182 37.9077C27.4114 37.9077 27.3242 37.9932 27.3242 38.1018Z" fill="white"/>
<path opacity="0.3" d="M27.6037 41.1818C26.0689 41.1818 24.8247 39.8371 24.8247 38.1784C24.8247 36.5197 26.0689 35.175 27.6037 35.175C29.1385 35.175 30.3828 36.5197 30.3828 38.1784C30.3828 39.8371 29.1385 41.1818 27.6037 41.1818Z" fill="white"/>
<path d="M50.6833 64.2242C50.3754 64.4627 44.1568 63.7933 45.7644 52.759C45.7644 52.759 42.8144 53.5085 42.4976 53.4587C42.4976 53.4587 38.1679 60.0939 41.3208 63.3821C44.4719 66.6685 49.1683 66.8626 49.1683 66.8626L50.6833 64.2242Z" fill="#407BFF"/>
<path opacity="0.3" d="M50.6833 64.2242C50.3754 64.4627 44.1568 63.7933 45.7644 52.759C45.7644 52.759 42.8144 53.5085 42.4976 53.4587C42.4976 53.4587 38.1679 60.0939 41.3208 63.3821C44.4719 66.6685 49.1683 66.8626 49.1683 66.8626L50.6833 64.2242Z" fill="black"/>
<path d="M43.7919 54.4663C43.7759 54.4698 45.5294 54.5001 46.1169 53.7684C46.7044 53.0367 47.0943 51.7371 46.0315 50.8398C44.9687 49.9407 38.6931 46.1042 35.7378 45.8016C32.7825 45.4989 29.6225 47.4092 29.6225 47.4092L33.4893 50.2683L41.8175 52.2836L43.7919 54.4663Z" fill="#263238"/>
<path d="M49.4622 62.4865L49.3002 64.0817L47.3845 63.9197L47.673 62.28L49.4622 62.4865Z" fill="#FFC3BD"/>
<path d="M49.8342 63.9659L47.0552 63.9268L46.8576 65.3296C46.8576 65.3296 49.4604 65.367 50.5303 65.2228C51.6003 65.0786 51.4347 64.5232 51.4347 64.5232C51.4347 64.5232 50.1796 64.5534 49.8342 63.9659Z" fill="#263238"/>
<path d="M25.581 67.9992C25.1662 63.921 27.6284 60.3303 31.0805 59.9792C34.5327 59.6281 37.6674 62.6494 38.0823 66.7276C38.4971 70.8058 36.0349 74.3965 32.5827 74.7476C29.1306 75.0988 25.9958 72.0774 25.581 67.9992Z" fill="#263238"/>
<path d="M36.1989 44.6658C36.1989 44.6658 35.9105 51.2831 39.7613 51.4718C43.612 51.6605 47.7459 51.2386 47.7459 51.2386L46.5317 63.1221L50.1422 63.3429C50.1422 63.3429 52.7325 53.2557 53.1402 50.7206C53.5479 48.1854 53.1936 46.3926 50.5178 45.2693C47.8403 44.1459 36.1989 44.6658 36.1989 44.6658Z" fill="#407BFF"/>
<path d="M57.7388 65.6608L52.9444 51.7353L46.5282 44.6604C46.5282 44.6604 52.1219 44.6835 54.8102 46.2271C57.4984 47.7706 57.6124 49.631 58.0984 51.8386C58.5826 54.0479 60.5695 64.5036 60.5695 64.5036L57.7388 65.6608Z" fill="#407BFF"/>
<path opacity="0.7" d="M36.1989 44.6658C36.1989 44.6658 42.1576 44.4005 46.5282 44.6604C46.5282 44.6604 52.1219 44.6836 54.8102 46.2271C57.4984 47.7706 57.6124 49.631 58.0984 51.8386C58.5826 54.0479 60.5695 64.5036 60.5695 64.5036L57.7388 65.6608L52.9444 51.7353C52.138 55.595 50.1422 63.3447 50.1422 63.3447L46.5318 63.1239L47.746 51.2404C47.746 51.2404 43.6121 51.6606 39.7613 51.4736C35.9105 51.2831 36.1989 44.6658 36.1989 44.6658Z" fill="black"/>
<path d="M46.0297 33.9341L48.2426 34.2029C48.2426 34.2029 48.6289 38.2709 48.985 39.0596C48.985 39.0596 55.7911 39.996 58.579 39.9141L59.9944 40.8755L60.0424 42.5472L58.6556 42.5881L58.2087 41.5288C58.2087 41.5288 57.2723 41.4897 57.0569 40.9609C57.0569 40.9609 49.8253 42.7074 47.162 40.7152C47.162 40.7152 45.5561 38.3563 46.0297 33.9341Z" fill="#FFC3BD"/>
<path d="M39.6919 23.0388C39.6919 23.0388 38.9976 23.9254 39.2628 24.7016C39.5281 25.476 40.2402 25.5971 40.2402 25.5971C40.2402 25.5971 40.3702 26.8309 41.0983 26.8665C41.8264 26.9021 41.579 24.1497 41.579 24.1497L39.6919 23.0388Z" fill="#263238"/>
<path d="M45.298 44.6961L45.7858 36.7435L48.8016 34.7389C48.8016 34.7389 47.8225 31.2548 45.9282 30.6709C44.0358 30.0869 39.9233 28.7304 37.4291 29.4015C34.9331 30.0727 35.2197 33.0191 35.6417 35.2017L36.1223 35.3175C36.1223 35.3175 36.1971 43.9252 36.1989 44.664L45.298 44.6961Z" fill="#263238"/>
<path d="M39.8717 29.8946C40.8615 30.8506 42.8768 31.4203 43.4394 30.9467C44.0037 30.4732 43.2934 30.0352 42.77 29.4976C42.4852 29.2021 42.4958 28.6484 42.5617 28.2069C42.6187 27.8401 42.7148 27.5499 42.7148 27.5499C44.5645 27.4467 45.3336 26.5832 45.4084 25.0646C45.4867 23.5461 44.7835 21.7604 44.7835 21.7604L43.475 20.6442C43.475 20.6442 41.7018 20.913 40.2633 21.8922C39.4177 22.469 39.6669 23.6048 40.0194 24.4415C40.2651 25.029 40.5607 25.4688 40.5607 25.4688C40.7636 27.5571 39.8717 29.8946 39.8717 29.8946Z" fill="#FFC3BD"/>
<path d="M44.3723 25.4759C44.3723 25.4759 43.6602 25.5097 43.3486 25.0682" stroke="#263238" stroke-miterlimit="10" stroke-linecap="round" stroke-linejoin="round"/>
<path d="M43.2382 23.6743C43.2418 23.8096 43.3201 23.9164 43.4145 23.9128C43.507 23.9093 43.58 23.7989 43.5765 23.6636C43.5729 23.5283 43.4946 23.4215 43.4002 23.425C43.3059 23.4286 43.2329 23.539 43.2382 23.6743Z" fill="#263238"/>
<path d="M44.8619 23.7171C44.8654 23.8524 44.9438 23.9592 45.0381 23.9557C45.1307 23.9521 45.2037 23.8417 45.2001 23.7064C45.1966 23.5711 45.1182 23.4643 45.0239 23.4679C44.9295 23.4714 44.8565 23.5836 44.8619 23.7171Z" fill="#263238"/>
<path d="M44.2975 24.8226L44.3705 23.7313L44.8921 24.7675C44.8921 24.7675 44.625 25.0096 44.2975 24.8226Z" fill="#ED847E"/>
<path d="M43.3237 22.8197C43.3237 22.8197 42.843 22.6809 42.6222 23.1455" stroke="#263238" stroke-miterlimit="10" stroke-linecap="round" stroke-linejoin="round"/>
<path d="M45.3639 23.0209C45.3639 23.0209 45.0363 22.6667 44.6518 22.7557" stroke="#263238" stroke-miterlimit="10" stroke-linecap="round" stroke-linejoin="round"/>
<path d="M40.0176 24.4416H40.0194C42.056 24.5146 42.3088 22.2037 42.3088 22.2037C43.3147 22.736 44.7817 21.7587 44.7817 21.7587L43.4732 20.6406C43.4732 20.6406 41.7 20.9094 40.2615 21.8886C39.4158 22.4672 39.6669 23.603 40.0176 24.4416Z" fill="#263238"/>
<path d="M45.4351 22.4371C45.4351 22.4371 46.4891 21.7339 46.0244 21.23C45.558 20.7262 42.7131 21.6858 40.5856 22.8626C40.5856 22.8626 45.4601 19.6046 46.7828 20.6354C47.8777 21.4882 45.4494 22.6721 45.5224 22.6703L45.4351 22.4371Z" fill="#407BFF"/>
<path d="M39.4907 22.1984C39.4996 22.8269 39.6972 23.2773 39.6972 23.2773L44.4844 20.9629C44.4844 20.9629 44.2494 20.662 43.783 20.3968C43.5409 20.2579 43.2364 20.1315 42.8715 20.0603C42.5688 20.0015 42.227 19.9784 41.8425 20.0229C40.0889 20.2205 39.4818 21.57 39.4907 22.1984Z" fill="#407BFF"/>
<path d="M50.4858 43.4855C50.7992 43.813 54.828 42.9763 55.5312 43.3501C55.8285 43.5086 55.9585 44.0676 56.2558 44.6729V44.6747C56.6635 45.5025 57.3881 46.4105 59.2894 46.471C62.5794 46.5761 62.1824 43.238 62.4423 42.152C62.4423 42.152 65.5578 41.5841 65.7198 41.0393C65.8854 40.4963 65.6842 40.4091 65.6842 40.4091C65.6842 40.4091 61.8388 41.1176 61.0946 40.1492C61.0946 40.1492 60.9486 39.9818 60.5979 39.8163C60.5961 39.8163 60.5961 39.8145 60.5944 39.8145C60.2988 39.6756 59.8591 39.5403 59.2431 39.5083C57.8883 39.4388 56.2344 39.8198 55.7733 40.6761C54.8333 42.428 50.8027 42.0345 50.4271 42.492C50.0532 42.9531 50.1725 43.1597 50.4858 43.4855Z" fill="#407BFF"/>
<path d="M60.6834 45.7643C60.6834 45.7643 66.0884 53.2433 61.6376 64.7529" stroke="#263238" stroke-miterlimit="10" stroke-linecap="round" stroke-linejoin="round"/>
<path d="M53.5497 49.6507C53.5497 49.6507 53.5497 49.6649 53.5515 49.6952C53.5515 49.713 53.555 49.7397 53.5568 49.77V49.7878C53.6138 50.4945 53.7473 51.2227 53.9164 51.9294C54.1639 52.9674 54.4879 53.9554 54.7567 54.7494C55.8961 58.1231 55.7644 61.7585 55.7644 61.7585C56.1418 61.2903 56.8379 60.9538 57.696 60.7188C60.84 59.8553 66.1773 60.3164 66.1773 60.3164C67.2241 56.6437 66.8485 50.8969 65.8088 47.6745C64.7691 44.4522 61.8779 45.1768 61.8779 45.1768C61.8779 45.1768 58.8318 45.2658 58.4473 45.2248C57.6248 45.1394 56.9287 45.1608 56.343 45.2658C53.9787 45.702 53.4126 47.5624 53.5497 49.6507Z" fill="#407BFF"/>
<path d="M30.0836 63.6579C35.4298 68.479 45.7342 68.9846 53.4001 68.4505L57.6978 60.7186L59.4389 57.5871L53.8452 50.0475L53.5497 49.6505C53.5497 49.6505 53.5497 49.6665 53.5532 49.695C53.5532 49.7128 53.5568 49.7395 53.5586 49.7698V49.7876C53.6351 51.1317 54.1301 61.9186 50.1831 64.5587C50.1724 64.5659 50.16 64.5748 50.1511 64.5801C49.6312 64.9201 49.0366 65.1195 48.353 65.1391C41.0965 65.351 41.2994 55.8744 43.1438 53.8556L30.5553 51.3258C30.5553 51.3276 28.0665 57.5835 30.0836 63.6579Z" fill="#407BFF"/>
<path d="M44.0857 51.803C44.0857 51.803 45.266 52.7821 44.6571 54.0942C44.0483 55.4063 38.1804 52.8569 35.8696 52.3922C33.5588 51.9276 30.8741 51.4736 29.7347 51.2368C28.5953 51 28.6825 47.7012 29.6225 47.4092C30.5625 47.1154 39.772 48.7462 41.2995 49.6381C42.8252 50.5336 44.0857 51.803 44.0857 51.803Z" fill="#263238"/>
<path d="M41.1303 25.257C41.3671 25.0167 41.3849 24.6339 41.198 24.3526C40.9149 23.9254 40.3381 23.2453 39.7862 23.7527C39.0153 24.4612 40.3327 25.7591 40.8811 25.4457C40.9843 25.387 41.0662 25.3229 41.1303 25.257Z" fill="#FFC3BD"/>
<path opacity="0.2" d="M45.435 22.4369C45.435 22.4369 46.489 21.7337 46.0243 21.2298C45.8178 21.0055 45.2 21.0589 44.3651 21.2904C43.8969 21.4203 43.3521 21.5912 42.7895 21.8369C42.0578 22.1556 41.278 22.5633 40.5837 22.8642C40.5837 22.8642 45.4582 19.6062 46.7809 20.637C47.8758 21.4898 45.5988 22.5953 45.5205 22.6683L45.4813 22.5259L45.435 22.4369Z" fill="black"/>
<path d="M44.9348 22.1326C44.9348 22.1326 46.0066 22.3106 45.2678 23.4607L44.9348 22.1326Z" fill="#263238"/>
<path d="M43.9111 21.431C43.9111 21.431 45.5223 20.8631 45.9709 21.1836C46.4178 21.504 45.9514 22.1165 45.4351 22.4369L45.0238 22.4885L44.7817 21.7586L44.1532 21.6821L43.9111 21.431Z" fill="#263238"/>
<path opacity="0.3" d="M41.716 20.5605L42.1024 21.1338L43.7812 20.3985C43.5391 20.2596 43.2346 20.1332 42.8697 20.062L41.716 20.5605Z" fill="white"/>
<path opacity="0.1" d="M42.0899 27.3916C42.0899 27.3916 42.2483 27.8474 42.5617 28.2052C42.6186 27.8385 42.7148 27.5483 42.7148 27.5483C42.7148 27.5483 42.3071 27.518 42.0899 27.3916Z" fill="black"/>
<path d="M58.0503 43.0492C58.1198 44.2829 58.6556 45.2906 59.3108 45.5345C59.3126 45.5345 59.3126 45.5345 59.3126 45.5345C59.4265 45.5772 59.544 45.5968 59.6615 45.5897C60.4697 45.5434 61.0572 44.331 60.9754 42.8836C60.8935 41.438 60.1707 40.3004 59.3624 40.3467C59.033 40.3663 58.7429 40.5764 58.5168 40.9182C58.515 40.9182 58.515 40.92 58.515 40.92C58.1892 41.4149 58.0023 42.1893 58.0503 43.0492Z" fill="#F5F5F5"/>
<path d="M58.0503 43.0492C58.1197 44.283 58.6556 45.2906 59.3108 45.5345C59.3125 45.5345 59.3125 45.5345 59.3125 45.5345C60.0585 45.4918 60.6033 44.372 60.5267 43.0368C60.4501 41.6998 59.7825 40.6512 59.0366 40.6939C58.8497 40.7046 58.6734 40.7847 58.5185 40.9182C58.5167 40.9182 58.5167 40.92 58.5167 40.92C58.1892 41.4149 58.0022 42.1893 58.0503 43.0492Z" fill="white"/>
<path d="M29.197 60.5354C30.5731 59.5687 35.8998 58.6198 35.8998 58.6198C39.1346 58.6126 41.9724 61.5288 42.3659 65.3956C42.6863 68.5396 41.2941 71.3934 39.0581 72.6966C39.0581 72.6966 38.8729 72.7731 38.5578 72.8978C37.3739 73.366 34.3652 74.5054 32.5849 74.7493" fill="#263238"/>
<path opacity="0.3" d="M25.581 67.9992C25.1662 63.921 27.6284 60.3303 31.0805 59.9792C34.5327 59.6281 37.6674 62.6494 38.0823 66.7276C38.4971 70.8058 36.0349 74.3965 32.5827 74.7476C29.1306 75.0988 25.9958 72.0774 25.581 67.9992Z" fill="black"/>
<path d="M53.2567 67.7636C52.8418 63.6854 55.3041 60.0947 58.7562 59.7436C62.2083 59.3924 65.3431 62.4138 65.7579 66.492C66.1727 70.5702 63.7105 74.1609 60.2584 74.512C56.8063 74.8632 53.6715 71.8418 53.2567 67.7636Z" fill="#263238"/>
<path d="M55.6683 61.1068L58.855 74.4715C59.3125 74.5463 59.7825 74.5623 60.2596 74.5142C60.2721 74.5125 60.2846 74.5125 60.2953 74.5107C60.9059 74.354 60.6335 74.5231 61.2459 74.3202C62.8037 73.8057 65.0665 72.8942 65.0665 72.8942C67.4627 71.7299 68.8175 68.8921 68.4882 65.6519C68.0894 61.7263 65.273 58.7942 61.9581 59.0345C61.9581 59.0345 60.3825 59.3247 58.7642 59.7484C58.061 59.9318 57.3489 60.1401 56.7542 60.3609C56.7525 60.3609 56.7507 60.3609 56.7507 60.3626C56.3661 60.5656 56.0047 60.8166 55.6683 61.1068Z" fill="#263238"/>
<path opacity="0.3" d="M53.2577 67.7651C53.6155 71.2812 55.994 74.0086 58.855 74.4697C59.3125 74.5445 59.7825 74.5605 60.2596 74.5124C60.2721 74.5107 60.2845 74.5107 60.2952 74.5089C60.9611 74.4359 61.5895 74.2454 62.1645 73.9516C64.5697 72.7321 66.0919 69.7697 65.759 66.494C65.3442 62.4189 62.2162 59.4013 58.766 59.7466H58.7571C58.0414 59.8196 57.3684 60.0315 56.756 60.3591C56.7542 60.3591 56.7524 60.3591 56.7524 60.3609C56.3661 60.5656 56.0029 60.8184 55.6665 61.1086C53.968 62.5827 52.9818 65.068 53.2577 67.7651Z" fill="black"/>
<path d="M54.1247 63.0758C54.1924 62.9244 54.374 62.7428 54.4737 62.6093C55.2677 61.5216 57.0889 61.1174 58.2799 61.2118C59.1968 61.2866 60.062 61.6284 60.8293 62.1269C61.6981 62.6894 62.3212 63.5493 63.1811 64.1439C64.8154 65.2709 67.2954 65.2406 68.9368 64.0781C69.0312 64.0122 69.1184 63.941 69.2003 63.8627C69.3765 63.6989 69.4691 63.4639 69.5208 63.2307C69.5884 62.928 69.5546 62.6307 69.4549 62.3441C69.1006 61.3453 67.9114 60.4641 67.1619 59.9282C65.6504 58.8493 63.8576 58.2387 62.0079 58.1105C56.7097 57.7402 54.4576 62.2604 54.1247 63.0758Z" fill="#407BFF"/>
<path opacity="0.3" d="M54.4915 63.2183C55.6291 61.5769 57.0889 61.1176 58.28 61.2119C59.1968 61.2867 60.062 61.6285 60.8293 62.127C61.6981 62.6896 62.3212 63.5494 63.1811 64.1441C64.8154 65.271 67.2954 65.2407 68.9368 64.0782C69.0312 64.0123 69.1184 63.9411 69.2003 63.8628C69.3765 63.699 69.4691 63.464 69.5208 63.2308C69.5884 62.9281 69.5546 62.6308 69.4549 62.3442C68.9048 62.9798 67.3025 64.5108 65.1341 63.7631C62.428 62.8284 61.7676 60.0512 58.8728 60.0761C56.5762 60.0939 55.1609 61.8867 54.4915 63.2183Z" fill="black"/>
<g opacity="0.3">
<path opacity="0.3" d="M66.3963 59.4333C65.6379 58.8743 64.7513 58.5004 63.838 58.2601C62.9212 58.0251 61.9616 57.9485 61.018 58.0286C60.5462 58.0767 60.0762 58.1497 59.6187 58.2725C59.1612 58.3918 58.7072 58.536 58.2746 58.7265L57.9506 58.8689L57.6337 59.0274C57.42 59.1271 57.2189 59.2517 57.0124 59.3656C56.8094 59.4849 56.6153 59.6202 56.4177 59.7466C56.2237 59.8801 56.0368 60.0226 55.8463 60.1614C56.6314 59.6451 57.4574 59.1947 58.3262 58.8547C59.1932 58.5111 60.1065 58.2832 61.0323 58.2067C61.958 58.1141 62.8962 58.1906 63.806 58.3936C64.2599 58.4951 64.7086 58.6339 65.1412 58.8066C65.5756 58.9775 65.9993 59.1805 66.3963 59.4333Z" fill="black"/>
</g>
<g opacity="0.3">
<path opacity="0.3" d="M60.6264 58.1605C60.8739 57.4252 60.9576 56.649 61.0235 55.8799C61.0822 55.109 61.0929 54.3346 61.0786 53.5602C61.0555 52.7875 61.0092 52.0149 60.938 51.2458L60.8098 50.0939C60.7528 49.7112 60.703 49.3302 60.6407 48.9492L60.8027 51.2565L60.8668 52.4101C60.8775 52.7947 60.9006 53.1792 60.9024 53.5637C60.9327 54.3328 60.9184 55.1019 60.8899 55.871C60.8775 56.2556 60.8472 56.6383 60.8098 57.0211C60.7671 57.4021 60.719 57.7848 60.6264 58.1605Z" fill="black"/>
</g>
<path opacity="0.3" d="M50.1814 64.5588C53.8987 62.1661 54.0464 55.9992 53.9165 51.9294C53.8951 51.2297 53.8649 50.5942 53.8435 50.0476C53.815 49.3035 53.8008 48.732 53.8453 48.4044C54.2316 45.604 56.3519 45.2675 56.3519 45.2675C56.3484 45.2675 56.3466 45.2657 56.3448 45.2657C53.9788 45.7001 53.4127 47.5605 53.5497 49.6488C53.5497 49.6488 53.5497 49.6649 53.5533 49.6933C53.5533 49.7111 53.5569 49.7379 53.5586 49.7681V49.7859C53.6352 51.1318 54.1301 61.9186 50.1814 64.5588Z" fill="black"/>
<path opacity="0.2" d="M50.4858 43.4855C50.7991 43.813 54.8279 42.9763 55.5311 43.3501C55.8284 43.5086 55.9584 44.0676 56.2557 44.6729V44.6747C56.2575 44.6765 56.2575 44.6783 56.2593 44.6783C57.0996 46.0153 58.2799 46.2236 58.3529 46.2342C56.9429 45.1696 56.5495 42.5953 57.2491 40.9699C57.9452 39.3587 60.4519 39.7664 60.5943 39.8145C60.2988 39.6756 59.859 39.5403 59.2431 39.5083C57.8882 39.4388 56.2344 39.8198 55.7733 40.6761C54.8333 42.428 50.8027 42.0345 50.427 42.492C50.0532 42.9531 50.1724 43.1597 50.4858 43.4855Z" fill="black"/>
<path d="M53.6387 41.9313C53.6387 41.9313 54.0144 42.5277 53.9182 43.4125L50.5054 43.797C50.5054 43.797 49.9624 43.2594 50.071 42.3123C50.0728 42.3105 53.4536 41.9704 53.6387 41.9313Z" fill="#263238"/>
<path d="M64.0018 41.8048C64.0018 41.8048 64.3419 41.082 63.9342 40.6262C64.8457 40.5443 65.4101 40.4535 65.9976 40.361C66.083 40.6262 66.1275 40.8826 65.8213 41.2849C65.5151 41.6891 64.0018 41.8048 64.0018 41.8048Z" fill="#263238"/>
<path d="M65.8979 46.3286C66.4889 47.2918 66.9946 48.8335 67.0391 51.2956" stroke="#407BFF" stroke-miterlimit="10" stroke-linecap="round" stroke-linejoin="round"/>
<path d="M63.9519 44.7406C63.9519 44.7406 64.4771 44.8154 65.0967 45.3584" stroke="#407BFF" stroke-miterlimit="10" stroke-linecap="round" stroke-linejoin="round"/>
<path d="M37.4025 35.4598L39.6492 35.734C39.6492 35.734 40.0409 39.8643 40.404 40.6654C40.404 40.6654 47.3152 41.6161 50.1458 41.5324L51.5825 42.508L51.6324 44.2064L50.2242 44.2474L49.7702 43.1721C49.7702 43.1721 48.8195 43.1311 48.6005 42.5953C48.6005 42.5953 41.2586 44.3685 38.5543 42.346C38.5543 42.346 36.9236 39.9515 37.4025 35.4598Z" fill="#FFC3BD"/>
<path opacity="0.2" d="M55.6967 67.2311C55.7626 69.4707 57.2278 71.2439 58.9742 71.194C59.2128 71.1869 59.4442 71.1477 59.665 71.0748C61.0661 70.6297 62.0719 68.9811 62.0168 67.0477C61.9616 65.1802 60.9326 63.6349 59.5777 63.2041C59.3089 63.1186 59.0276 63.0759 58.7392 63.0848C56.991 63.1346 55.6308 64.9915 55.6967 67.2311Z" fill="#FAFAFA"/>
<path d="M57.3043 67.2258C57.3595 69.1361 58.3671 70.7081 59.665 71.0748C61.0661 70.6297 62.0719 68.9812 62.0168 67.0478C61.9616 65.1802 60.9326 63.6349 59.5777 63.2041C58.2301 63.5673 57.2456 65.2443 57.3043 67.2258Z" fill="#263238"/>
<path opacity="0.2" d="M28.2658 67.4055C28.3317 69.6452 29.7969 71.4183 31.5434 71.3685C31.7819 71.3614 32.0134 71.3222 32.2341 71.2492C33.6352 70.8041 34.6411 69.1556 34.5859 67.2222C34.5307 65.3546 33.5017 63.8093 32.1469 63.3785C31.8781 63.293 31.5968 63.2503 31.3084 63.2592C29.5619 63.3108 28.2017 65.1659 28.2658 67.4055Z" fill="#FAFAFA"/>
<path d="M29.8734 67.4019C29.9286 69.3122 30.9363 70.8842 32.2341 71.2509C33.6352 70.8059 34.6411 69.1573 34.5859 67.2239C34.5307 65.3564 33.5017 63.8111 32.1469 63.3802C30.7992 63.7434 29.8165 65.4205 29.8734 67.4019Z" fill="#263238"/>
<path d="M25.5135 61.502C25.4832 63.7042 28.8355 65.1623 34.4453 66.0809C36.2825 66.3818 37.8047 66.3337 39.0224 66.1343C41.5202 65.7231 42.7308 64.6709 42.7308 64.6709C42.7308 64.6709 42.097 57.0583 35.825 56.0952C31.5576 55.44 28.3371 57.1598 26.7063 59.0185C25.939 59.8908 25.5224 60.797 25.5135 61.502Z" fill="#407BFF"/>
<path opacity="0.3" d="M25.5135 61.5021C25.4833 63.7043 28.8356 65.1624 34.4453 66.081C36.2826 66.3819 37.8047 66.3338 39.0225 66.1344C38.7536 64.0675 37.5466 58.6465 32.3 58.0839C29.9198 57.8293 28.0825 58.3082 26.7081 59.0186C25.939 59.8909 25.5224 60.7971 25.5135 61.5021Z" fill="black"/>
<g opacity="0.3">
<path opacity="0.3" d="M42.3676 64.703C42.2626 63.6668 41.9973 62.6485 41.6306 61.6693C41.2638 60.6902 40.7618 59.7591 40.1298 58.9206C39.8111 58.5022 39.4497 58.1176 39.058 57.7687C38.6682 57.418 38.2444 57.1011 37.7833 56.8501C36.8754 56.3195 35.8428 56.0311 34.8102 55.9243C35.3212 56.024 35.8321 56.1237 36.3146 56.3124C36.5621 56.3872 36.7953 56.5029 37.0338 56.6008C37.2617 56.7219 37.4967 56.8287 37.7139 56.9694C37.9382 57.0975 38.1447 57.2524 38.3566 57.3966C38.5578 57.5568 38.7643 57.7117 38.9494 57.8898C39.3304 58.2369 39.6794 58.6179 39.9874 59.0292C40.6194 59.8428 41.1125 60.7614 41.5024 61.7192C41.7 62.1981 41.8691 62.6877 42.0116 63.1862C42.1611 63.6846 42.2804 64.1902 42.3676 64.703Z" fill="black"/>
</g>
<path d="M50.7831 62.1893L50.4146 63.4462L46.5318 63.1222L46.4802 61.365L50.7831 62.1893Z" fill="#407BFF"/>
</g>
<defs>
<clipPath id="clip0">
<rect width="89.0149" height="65.4135" fill="white" transform="matrix(-1 0 0 1 91.0748 9.36438)"/>
</clipPath>
</defs>
</svg>
