<svg width="37" height="36" viewBox="0 0 37 36" fill="none" xmlns="http://www.w3.org/2000/svg">
<path fill-rule="evenodd" clip-rule="evenodd" d="M3.28571 4.63037C3.28571 3.45347 3.82002 2.32478 4.7711 1.49258C5.72218 0.660392 7.01212 0.192871 8.35714 0.192871H28.6429C29.9879 0.192871 31.2778 0.660392 32.2289 1.49258C33.18 2.32478 33.7143 3.45347 33.7143 4.63037V31.2554C34.3868 31.2554 35.0318 31.4891 35.5073 31.9052C35.9828 32.3213 36.25 32.8857 36.25 33.4741C36.25 34.0626 35.9828 34.6269 35.5073 35.043C35.0318 35.4591 34.3868 35.6929 33.7143 35.6929H26.1071C25.4346 35.6929 24.7897 35.4591 24.3141 35.043C23.8386 34.6269 23.5714 34.0626 23.5714 33.4741V29.0366C23.5714 28.4482 23.3043 27.8838 22.8287 27.4677C22.3532 27.0516 21.7082 26.8179 21.0357 26.8179H15.9643C15.2918 26.8179 14.6468 27.0516 14.1713 27.4677C13.6957 27.8838 13.4286 28.4482 13.4286 29.0366V33.4741C13.4286 34.0626 13.1614 34.6269 12.6859 35.043C12.2103 35.4591 11.5654 35.6929 10.8929 35.6929H3.28571C2.6132 35.6929 1.96823 35.4591 1.49269 35.043C1.01715 34.6269 0.75 34.0626 0.75 33.4741C0.75 32.8857 1.01715 32.3213 1.49269 31.9052C1.96823 31.4891 2.6132 31.2554 3.28571 31.2554V4.63037ZM10.8929 6.84912H15.9643V11.2866H10.8929V6.84912ZM15.9643 15.7241H10.8929V20.1616H15.9643V15.7241ZM21.0357 6.84912H26.1071V11.2866H21.0357V6.84912ZM26.1071 15.7241H21.0357V20.1616H26.1071V15.7241Z" fill="#FFB200"/>
</svg>
