<svg width="694" height="205" viewBox="0 0 694 205" fill="none" xmlns="http://www.w3.org/2000/svg">
<path fill-rule="evenodd" clip-rule="evenodd" d="M692.803 204.391C692.803 204.391 660.736 171.235 644.558 162.161C634.907 156.748 625.223 153.115 615.505 151.262C607.227 149.684 600.507 148.54 594.711 147.339C573.188 142.878 573.252 139.119 544.832 107.861C528.499 89.8974 515.372 75.1667 496.244 68.6301C482.789 64.0321 249.876 0.982135 198.841 0.879246C147.806 0.776357 71.5441 37.1434 50.5066 46.4939C36.3693 52.7775 0.806152 68.9641 0.806152 68.9641V204.443L692.803 204.391Z" fill="#4339F2"/>
<path fill-rule="evenodd" clip-rule="evenodd" d="M0.806152 204.405C0.806152 204.405 32.8737 179.806 49.0519 173.073C58.7019 169.058 68.3862 166.362 78.1047 164.988C86.3823 163.817 93.1025 162.968 98.8981 162.077C120.421 158.767 120.358 155.978 148.778 132.788C165.111 119.461 178.237 108.532 197.365 103.682C210.821 100.271 227.146 99.8853 248.847 103.93C264.432 106.835 273.936 109.822 295.994 117.817C313.382 124.119 334.034 126.448 349.323 125.151C367.038 123.648 382.03 117.997 397.639 110.412C414.709 102.117 429.196 90.0442 444.705 80.0118C457.236 71.9059 479.677 55.3604 494.768 53.4173C509.86 51.4743 534.223 57.2618 543.812 58.9834C555.611 61.1019 572.065 65.7512 593.172 71.8567C603.45 74.8296 622.065 80.322 643.103 87.2592C657.24 91.9211 692.803 103.93 692.803 103.93V204.443L0.806152 204.405Z" fill="#34B53A"/>
<path fill-rule="evenodd" clip-rule="evenodd" d="M0.806152 205.446C0.806152 205.446 11.1338 179.118 50.2313 176.79C73.1774 175.423 86.7538 181.622 99.6564 183.992C108.738 185.66 120.133 185.503 135.065 180.373C139.646 178.799 144.096 177.281 148.496 175.855C164.459 170.682 179.768 166.722 198.308 165.723C214.681 164.841 249.698 169.873 250.145 169.967C262.979 172.646 268.489 144.846 301.045 145.619C324.239 146.17 330.993 152.467 350.47 155.854C366.456 158.633 381.255 161 399.896 162.677C420.826 164.56 423.547 164.58 449.321 164.193C466.224 163.94 482.964 162.062 498.456 159.089C517.63 155.409 534.891 185.391 548.18 179.354C556.103 175.755 562.613 171.915 567.275 168.047C577.956 159.184 586.793 150.537 597.467 145.072C604.483 141.48 612.292 139.262 621.94 139.262C632.421 139.262 637.928 140.354 646.283 143.432C664.587 150.175 687.284 176.816 689.807 186.266C692.33 195.717 693.806 205.446 693.806 205.446H0.806152Z" fill="#FF3A29"/>
</svg>
