<svg width="25" height="25" viewBox="0 0 25 25" fill="none" xmlns="http://www.w3.org/2000/svg">
<g opacity="0.4">
<path d="M24.0836 13.7087L15.2242 18.1384C14.5992 18.4509 13.8571 18.6072 12.9977 18.6072C12.1383 18.6072 11.3961 18.4509 10.7711 18.1384L1.91174 13.7087C1.30237 13.3962 0.997681 13.0251 0.997681 12.5955C0.997681 12.1658 1.30237 11.7947 1.91174 11.4822L4.20862 10.3572L5.84924 11.1775L2.49768 12.6072L12.9977 17.1072L23.4977 12.6072L20.1461 11.1775L21.7867 10.3572L24.0836 11.4822C24.693 11.7947 24.9977 12.1658 24.9977 12.5955C24.9977 13.0251 24.693 13.3962 24.0836 13.7087ZM24.0836 7.70874L15.2242 12.1384C14.5992 12.4509 13.8571 12.6072 12.9977 12.6072C12.1383 12.6072 11.3961 12.4509 10.7711 12.1384L1.91174 7.70874C1.30237 7.39624 0.997681 7.02515 0.997681 6.59546C0.997681 6.16577 1.30237 5.79468 1.91174 5.48218L10.7711 1.05249C11.3961 0.755615 12.1383 0.607178 12.9977 0.607178C13.8571 0.607178 14.5992 0.755615 15.2242 1.05249L24.0836 5.48218C24.693 5.79468 24.9977 6.16577 24.9977 6.59546C24.9977 7.02515 24.693 7.39624 24.0836 7.70874ZM1.91174 17.5056L4.20862 16.3572L5.84924 17.1775L2.49768 18.6072L12.9977 23.1072L23.4977 18.6072L20.1461 17.1775L21.7867 16.3572L24.0836 17.5056C24.693 17.8025 24.9977 18.1697 24.9977 18.6072C24.9977 19.0447 24.693 19.4119 24.0836 19.7087L15.2242 24.1384C14.5992 24.4509 13.8571 24.6072 12.9977 24.6072C12.1383 24.6072 11.3961 24.4509 10.7711 24.1384L1.91174 19.7087C1.30237 19.4119 0.997681 19.0447 0.997681 18.6072C0.997681 18.1697 1.30237 17.8025 1.91174 17.5056Z" fill="#252525"/>
<path d="M24.0836 13.5875L15.2242 18.0172C14.5992 18.3297 13.8571 18.4859 12.9977 18.4859C12.1383 18.4859 11.3961 18.3297 10.7711 18.0172L1.91174 13.5875C1.30237 13.275 0.997681 12.9039 0.997681 12.4742C0.997681 12.0445 1.30237 11.6812 1.91174 11.3843L4.20862 10.2359L10.7711 13.5172C11.3961 13.8297 12.1383 13.9859 12.9977 13.9859C13.8571 13.9859 14.5992 13.8297 15.2242 13.5172L21.7867 10.2359L24.0836 11.3843C24.693 11.6812 24.9977 12.0484 24.9977 12.4859C24.9977 12.9234 24.693 13.2906 24.0836 13.5875ZM24.0836 7.58746L15.2242 12.0172C14.5992 12.3297 13.8571 12.4859 12.9977 12.4859C12.1383 12.4859 11.3961 12.3297 10.7711 12.0172L1.91174 7.58746C1.30237 7.27496 0.997681 6.90387 0.997681 6.47418C0.997681 6.04449 1.30237 5.6734 1.91174 5.3609L10.7711 0.931213C11.3961 0.634338 12.1383 0.485901 12.9977 0.485901C13.8571 0.485901 14.5992 0.634338 15.2242 0.931213L24.0836 5.3609C24.693 5.6734 24.9977 6.04449 24.9977 6.47418C24.9977 6.90387 24.693 7.27496 24.0836 7.58746ZM12.9977 1.9859L2.49768 6.4859L12.9977 10.9859L23.4977 6.4859L12.9977 1.9859ZM1.91174 17.3843L4.20862 16.2359L5.84924 17.0562L2.49768 18.4859L12.9977 22.9859L23.4977 18.4859L20.1461 17.0562L21.7867 16.2359L24.0836 17.3843C24.693 17.6812 24.9977 18.0484 24.9977 18.4859C24.9977 18.9234 24.693 19.2906 24.0836 19.5875L15.2242 24.0172C14.5992 24.3297 13.8571 24.4859 12.9977 24.4859C12.1383 24.4859 11.3961 24.3297 10.7711 24.0172L1.91174 19.5875C1.30237 19.2906 0.997681 18.9234 0.997681 18.4859C0.997681 18.0484 1.30237 17.6812 1.91174 17.3843Z" fill="#252525"/>
</g>
</svg>
