<svg width="35" height="36" viewBox="0 0 35 36" fill="none" xmlns="http://www.w3.org/2000/svg">
<path d="M33.0111 19.5894L20.4603 25.8647C19.5749 26.3075 18.5235 26.5288 17.306 26.5288C16.0886 26.5288 15.0372 26.3075 14.1517 25.8647L1.60095 19.5894C0.737671 19.1466 0.30603 18.6209 0.30603 18.0122C0.30603 17.4035 0.737671 16.8778 1.60095 16.4351L4.85486 14.8413L7.17908 16.0034L2.43103 18.0288L17.306 24.4038L32.181 18.0288L27.433 16.0034L29.7572 14.8413L33.0111 16.4351C33.8744 16.8778 34.306 17.4035 34.306 18.0122C34.306 18.6209 33.8744 19.1466 33.0111 19.5894ZM33.0111 11.0894L20.4603 17.3647C19.5749 17.8075 18.5235 18.0288 17.306 18.0288C16.0886 18.0288 15.0372 17.8075 14.1517 17.3647L1.60095 11.0894C0.737671 10.6466 0.30603 10.1209 0.30603 9.51221C0.30603 8.90348 0.737671 8.37777 1.60095 7.93506L14.1517 1.65967C15.0372 1.2391 16.0886 1.02881 17.306 1.02881C18.5235 1.02881 19.5749 1.2391 20.4603 1.65967L33.0111 7.93506C33.8744 8.37777 34.306 8.90348 34.306 9.51221C34.306 10.1209 33.8744 10.6466 33.0111 11.0894ZM1.60095 24.9683L4.85486 23.3413L7.17908 24.5034L2.43103 26.5288L17.306 32.9038L32.181 26.5288L27.433 24.5034L29.7572 23.3413L33.0111 24.9683C33.8744 25.3888 34.306 25.909 34.306 26.5288C34.306 27.1486 33.8744 27.6688 33.0111 28.0894L20.4603 34.3647C19.5749 34.8075 18.5235 35.0288 17.306 35.0288C16.0886 35.0288 15.0372 34.8075 14.1517 34.3647L1.60095 28.0894C0.737671 27.6688 0.30603 27.1486 0.30603 26.5288C0.30603 25.909 0.737671 25.3888 1.60095 24.9683Z" fill="#9B51E0"/>
<path d="M33.0111 19.4175L20.4603 25.6929C19.5749 26.1356 18.5235 26.3569 17.306 26.3569C16.0886 26.3569 15.0372 26.1356 14.1517 25.6929L1.60095 19.4175C0.737671 18.9748 0.30603 18.4491 0.30603 17.8403C0.30603 17.2316 0.737671 16.717 1.60095 16.2964L4.85486 14.6694L14.1517 19.3179C15.0372 19.7606 16.0886 19.9819 17.306 19.9819C18.5235 19.9819 19.5749 19.7606 20.4603 19.3179L29.7572 14.6694L33.0111 16.2964C33.8744 16.717 34.306 17.2371 34.306 17.8569C34.306 18.4767 33.8744 18.9969 33.0111 19.4175ZM33.0111 10.9175L20.4603 17.1929C19.5749 17.6356 18.5235 17.8569 17.306 17.8569C16.0886 17.8569 15.0372 17.6356 14.1517 17.1929L1.60095 10.9175C0.737671 10.4748 0.30603 9.94906 0.30603 9.34033C0.30603 8.73161 0.737671 8.20589 1.60095 7.76318L14.1517 1.48779C15.0372 1.06722 16.0886 0.856934 17.306 0.856934C18.5235 0.856934 19.5749 1.06722 20.4603 1.48779L33.0111 7.76318C33.8744 8.20589 34.306 8.73161 34.306 9.34033C34.306 9.94906 33.8744 10.4748 33.0111 10.9175ZM17.306 2.98193L2.43103 9.35693L17.306 15.7319L32.181 9.35693L17.306 2.98193ZM1.60095 24.7964L4.85486 23.1694L7.17908 24.3315L2.43103 26.3569L17.306 32.7319L32.181 26.3569L27.433 24.3315L29.7572 23.1694L33.0111 24.7964C33.8744 25.217 34.306 25.7371 34.306 26.3569C34.306 26.9767 33.8744 27.4969 33.0111 27.9175L20.4603 34.1929C19.5749 34.6356 18.5235 34.8569 17.306 34.8569C16.0886 34.8569 15.0372 34.6356 14.1517 34.1929L1.60095 27.9175C0.737671 27.4969 0.30603 26.9767 0.30603 26.3569C0.30603 25.7371 0.737671 25.217 1.60095 24.7964Z" fill="#9B51E0"/>
</svg>
