<svg width="123" height="38" viewBox="0 0 123 38" fill="none" xmlns="http://www.w3.org/2000/svg">
<path d="M1.30615 14.6129C6.28311 14.6472 6.94212 18.2906 10.5602 19.3251C14.1782 20.3596 15.6932 36.5525 19.8205 36.109C23.9478 35.6654 25.3815 11.3966 29.0549 10.4821C32.7282 9.56764 33.0318 19.1952 37.8757 17.9055C42.7196 16.6158 42.2882 6.76089 46.6506 7.12544C51.013 7.49 50.9679 13.0642 55.4715 13.0642C59.9751 13.0642 60.4056 1.45835 65.1653 1.12217C69.9249 0.785993 70.0246 20.4876 75.1347 20.4876C80.2448 20.4876 81.8518 34.1564 86.3446 35.0762C90.8373 35.996 89.7205 13.3454 94.3385 10.0948C98.9564 6.84418 98.3318 29.9609 102.654 29.3956C106.976 28.8303 108.393 13.2077 112.118 14.5488C115.843 15.89 117.64 13.1328 121.306 13.1328" stroke="#FF3A29" stroke-width="2" stroke-linecap="round"/>
</svg>
