<svg width="19" height="21" viewBox="0 0 19 21" fill="none" xmlns="http://www.w3.org/2000/svg">
<path opacity="0.4" fill-rule="evenodd" clip-rule="evenodd" d="M0.997681 17.1072C0.997681 17.9028 1.31375 18.6659 1.87636 19.2285C2.43897 19.7911 3.20203 20.1072 3.99768 20.1072H15.9977C16.7933 20.1072 17.5564 19.7911 18.119 19.2285C18.6816 18.6659 18.9977 17.9028 18.9977 17.1072V6.93518C18.9972 6.13994 18.6811 5.37741 18.1187 4.81518L14.2907 0.985178C13.728 0.422896 12.9651 0.107082 12.1697 0.107178H3.99768C3.20203 0.107178 2.43897 0.423248 1.87636 0.985857C1.31375 1.54847 0.997681 2.31153 0.997681 3.10718V17.1072ZM14.9977 9.10718C14.9977 8.84196 14.8923 8.58761 14.7048 8.40007C14.5173 8.21253 14.2629 8.10718 13.9977 8.10718C13.7325 8.10718 13.4781 8.21253 13.2906 8.40007C13.103 8.58761 12.9977 8.84196 12.9977 9.10718V15.1072C12.9977 15.3724 13.103 15.6267 13.2906 15.8143C13.4781 16.0018 13.7325 16.1072 13.9977 16.1072C14.2629 16.1072 14.5173 16.0018 14.7048 15.8143C14.8923 15.6267 14.9977 15.3724 14.9977 15.1072V9.10718ZM10.9977 11.1072C10.9977 10.842 10.8923 10.5876 10.7048 10.4001C10.5173 10.2125 10.2629 10.1072 9.99768 10.1072C9.73246 10.1072 9.47811 10.2125 9.29057 10.4001C9.10304 10.5876 8.99768 10.842 8.99768 11.1072V15.1072C8.99768 15.3724 9.10304 15.6267 9.29057 15.8143C9.47811 16.0018 9.73246 16.1072 9.99768 16.1072C10.2629 16.1072 10.5173 16.0018 10.7048 15.8143C10.8923 15.6267 10.9977 15.3724 10.9977 15.1072V11.1072ZM6.99768 13.1022C6.99635 12.837 6.88973 12.5831 6.70125 12.3965C6.51278 12.2099 6.2579 12.1059 5.99268 12.1072C5.72746 12.1085 5.47364 12.2151 5.28704 12.4036C5.10044 12.5921 4.99635 12.847 4.99768 13.1122L5.00768 15.1122C5.00901 15.3774 5.11564 15.6312 5.30411 15.8178C5.49258 16.0044 5.74746 16.1085 6.01268 16.1072C6.2779 16.1059 6.53172 15.9992 6.71832 15.8107C6.90492 15.6223 7.00901 15.3674 7.00768 15.1022L6.99768 13.1022Z" fill="black"/>
</svg>
