<svg width="22" height="21" viewBox="0 0 22 21" fill="none" xmlns="http://www.w3.org/2000/svg">
<g opacity="0.4">
<path d="M11.1111 11.7327C11.9486 11.7327 12.6275 11.0538 12.6275 10.2163C12.6275 9.37885 11.9486 8.69995 11.1111 8.69995C10.2736 8.69995 9.59473 9.37885 9.59473 10.2163C9.59473 11.0538 10.2736 11.7327 11.1111 11.7327Z" fill="#252525"/>
<path d="M21.109 8.51797L20.3103 5.97047C20.2241 5.67605 20.0795 5.40201 19.885 5.16469C19.6906 4.92738 19.4504 4.73166 19.1787 4.5892C18.907 4.44674 18.6093 4.36047 18.3036 4.33552C17.9978 4.31057 17.6901 4.34746 17.3989 4.44399L17.0552 4.55519C16.7859 4.6442 16.4992 4.66678 16.2193 4.62102C15.9394 4.57525 15.6747 4.46249 15.4479 4.29236L15.3367 4.21148C15.1153 4.04203 14.9368 3.82291 14.8156 3.57181C14.6944 3.3207 14.634 3.04464 14.6391 2.76588V2.48282C14.644 1.84799 14.3968 1.23717 13.9517 0.784489C13.74 0.570633 13.4881 0.400708 13.2105 0.284475C12.933 0.168241 12.6352 0.107989 12.3342 0.107178H9.75642C9.13791 0.11517 8.54761 0.367177 8.11403 0.808329C7.68046 1.24948 7.43871 1.84406 7.44142 2.4626V2.70522C7.44045 2.99866 7.37365 3.28814 7.24593 3.55233C7.11821 3.81652 6.93283 4.04868 6.70346 4.2317L6.57204 4.33279C6.31865 4.52448 6.02227 4.65139 5.70868 4.70248C5.39508 4.75357 5.07375 4.7273 4.77262 4.62596C4.49605 4.53025 4.20293 4.49165 3.91101 4.5125C3.61909 4.53336 3.33444 4.61322 3.07428 4.74727C2.80341 4.8817 2.56311 5.07045 2.36832 5.30176C2.17354 5.53306 2.02844 5.80198 1.94206 6.09178L1.11311 8.72015C0.920879 9.31275 0.970177 9.95725 1.2503 10.5137C1.53043 11.0702 2.01876 11.4937 2.60926 11.6922H2.77101C3.04341 11.7943 3.28789 11.9592 3.48462 12.1735C3.68135 12.3878 3.82476 12.6454 3.90323 12.9256L3.96389 13.0873C4.07658 13.3968 4.11426 13.7286 4.07385 14.0554C4.03343 14.3823 3.91606 14.6949 3.73138 14.9676C3.35756 15.4767 3.19988 16.1128 3.29264 16.7375C3.38541 17.3623 3.72111 17.9251 4.22672 18.3036L6.31931 19.8907C6.71554 20.1788 7.19419 20.3313 7.68404 20.3254C7.81515 20.3383 7.9472 20.3383 8.0783 20.3254C8.38168 20.2667 8.66991 20.1468 8.9254 19.973C9.1809 19.7992 9.3983 19.5751 9.56434 19.3145L9.79685 18.9809C9.95995 18.747 10.1758 18.5546 10.4269 18.4194C10.678 18.2842 10.9574 18.2099 11.2425 18.2025C11.5412 18.1952 11.837 18.2636 12.1022 18.4015C12.3673 18.5394 12.5933 18.7422 12.7588 18.991L12.8801 19.1629C13.0525 19.4194 13.2755 19.6379 13.5355 19.805C13.7955 19.972 14.087 20.0841 14.3919 20.1343C14.6968 20.1845 15.0088 20.1717 15.3087 20.0968C15.6085 20.0219 15.8898 19.8864 16.1353 19.6987L18.1874 18.1621C18.6726 17.7852 18.9953 17.2371 19.0893 16.6299C19.1833 16.0228 19.0414 15.4027 18.6929 14.8968L18.43 14.5127C18.272 14.2685 18.1685 13.993 18.1266 13.7052C18.0848 13.4173 18.1055 13.1238 18.1874 12.8447C18.2709 12.5459 18.426 12.2719 18.6391 12.0465C18.8522 11.821 19.117 11.6509 19.4106 11.5507L19.6128 11.4799C20.1978 11.2769 20.681 10.8544 20.9602 10.3017C21.2394 9.74895 21.2927 9.10932 21.109 8.51797ZM11.111 13.7545C10.4113 13.7545 9.72718 13.547 9.14532 13.1582C8.56347 12.7694 8.10997 12.2168 7.84217 11.5703C7.57438 10.9238 7.50431 10.2124 7.64083 9.52604C7.77735 8.83969 8.11433 8.20925 8.60916 7.71442C9.10398 7.2196 9.73443 6.88262 10.4208 6.7461C11.1071 6.60957 11.8185 6.67964 12.465 6.94744C13.1116 7.21524 13.6642 7.66874 14.0529 8.25059C14.4417 8.83244 14.6492 9.51652 14.6492 10.2163C14.6492 11.1547 14.2765 12.0546 13.6129 12.7182C12.9494 13.3817 12.0494 13.7545 11.111 13.7545Z" fill="#252525"/>
</g>
</svg>
