<svg width="25" height="20" viewBox="0 0 25 20" fill="none" xmlns="http://www.w3.org/2000/svg">
<g opacity="0.4">
<path d="M0.997681 3.26159C0.997681 2.42499 1.27915 1.62265 1.78017 1.03108C2.2812 0.439517 2.96073 0.107178 3.66928 0.107178H21.6418C22.3504 0.107178 23.0299 0.439517 23.531 1.03108C24.032 1.62265 24.3134 2.42499 24.3134 3.26159V5.84248H0.997681V3.26159Z" fill="#252525"/>
<path d="M0.997559 7.56311H24.3133V16.4528C24.3133 17.2894 24.0319 18.0918 23.5308 18.6833C23.0298 19.2749 22.3503 19.6072 21.6417 19.6072H3.66916C2.96061 19.6072 2.28107 19.2749 1.78005 18.6833C1.27903 18.0918 0.997559 17.2894 0.997559 16.4528V7.56311ZM17.0271 13.1837C16.7953 13.1837 16.5729 13.2925 16.4089 13.4861C16.2449 13.6797 16.1528 13.9423 16.1528 14.2161C16.1528 14.4899 16.2449 14.7524 16.4089 14.946C16.5729 15.1396 16.7953 15.2484 17.0271 15.2484H19.9416C20.1735 15.2484 20.3959 15.1396 20.5599 14.946C20.7238 14.7524 20.816 14.4899 20.816 14.2161C20.816 13.9423 20.7238 13.6797 20.5599 13.4861C20.3959 13.2925 20.1735 13.1837 19.9416 13.1837H17.0271Z" fill="#252525"/>
</g>
</svg>
