<svg width="17" height="20" viewBox="0 0 17 20" fill="none" xmlns="http://www.w3.org/2000/svg">
<path d="M13.1843 5.21152C13.1845 4.18463 12.8604 3.18391 12.2583 2.35205C11.6562 1.5202 10.8068 0.899678 9.83126 0.57897C8.85574 0.258262 7.80386 0.25374 6.82561 0.56605C5.84736 0.87836 4.99269 1.49156 4.38346 2.3182C4.31279 2.29582 4.23914 2.28432 4.16502 2.28407H1.72906C1.53508 2.28407 1.34906 2.36113 1.2119 2.49829C1.07474 2.63545 0.997681 2.82148 0.997681 3.01545V8.37691C0.997425 8.72924 1.0666 9.07817 1.20125 9.40375C1.33591 9.72934 1.5334 10.0252 1.78244 10.2744C2.03149 10.5236 2.32721 10.7214 2.65269 10.8562C2.97818 10.9911 3.32706 11.0606 3.67939 11.0606H3.92318V11.0567H3.93293C4.09815 11.0569 4.26071 11.0151 4.4053 10.9352C4.54989 10.8552 4.67176 10.7398 4.75941 10.5998C4.84706 10.4597 4.89761 10.2997 4.90631 10.1347C4.915 9.96968 4.88155 9.80519 4.8091 9.6567C4.73666 9.50822 4.6276 9.38062 4.49221 9.28593C4.35682 9.19124 4.19956 9.13258 4.03523 9.11547C3.8709 9.09836 3.70492 9.12336 3.55293 9.18813C3.40093 9.2529 3.26793 9.35529 3.16645 9.48567C2.95527 9.38771 2.77656 9.23133 2.65145 9.03502C2.52633 8.83871 2.46005 8.61067 2.46043 8.37788V8.13507H3.18985C3.56042 8.13507 3.90465 8.0161 4.18452 7.81521C4.74855 8.70941 5.58793 9.39605 6.57617 9.77167C7.56441 10.1473 8.64796 10.1915 9.66353 9.89772C10.6791 9.60391 11.5717 8.98797 12.2067 8.14273C12.8417 7.29749 13.1849 6.26874 13.1843 5.21152ZM3.43267 5.10815C3.43124 5.17706 3.43124 5.24598 3.43267 5.31489V6.42755C3.43267 6.49221 3.40698 6.55422 3.36126 6.59994C3.31555 6.64566 3.25354 6.67134 3.18888 6.67134H2.46043V3.7478H3.43365V5.10815H3.43267Z" fill="#252525"/>
<path d="M16.6003 14.2537C16.6003 13.9656 16.5436 13.6803 16.4333 13.4142C16.323 13.148 16.1614 12.9062 15.9576 12.7026C15.7539 12.4989 15.512 12.3374 15.2458 12.2272C14.9796 12.1171 14.6943 12.0604 14.4062 12.0605H3.1918C2.90363 12.0604 2.61826 12.1171 2.352 12.2273C2.08574 12.3375 1.84381 12.4991 1.64004 12.7029C1.43627 12.9067 1.27466 13.1486 1.16444 13.4149C1.05422 13.6811 0.997553 13.9665 0.997681 14.2547V15.1518C0.997681 15.7086 1.17126 16.2528 1.49502 16.7072C2.9997 18.8175 5.45906 19.8628 8.7951 19.8628C12.1302 19.8628 14.5925 18.8184 16.0991 16.7082C16.4243 16.254 16.5995 15.7095 16.6003 15.1508V14.2547V14.2537Z" fill="#252525"/>
</svg>
